<?xml version="1.0"?>
<svg width="130" height="50" xmlns="http://www.w3.org/2000/svg" xmlns:svg="http://www.w3.org/2000/svg">
 <g class="layer">
  <title>Layer 1</title>
  <circle cx="25" cy="25" fill="black" id="svg_1" r="25"/>
  <path d="m28.48,34.28l-5.14,0l0,-8.44c0,-1.4 1.03,-3.92 3.04,-3.86c1.6,0.06 2.06,1.56 2.1,2.3l0,10z" fill="white" id="svg_2"/>
  <path d="m12,34.38l0,-14.79l6.53,-4.64l4.87,-3.47l1.84,-1.3c0.33,-0.24 0.78,-0.24 1.12,0l11.11,7.86c1.37,0.97 2.18,2.55 2.18,4.23l0,12.11l-4.45,0c-1.04,0 -1.88,-0.84 -1.88,-1.88l0,-9.64c0,-2.59 -2.1,-4.7 -4.68,-4.7c-2.02,0 -3.93,0.93 -5.19,2.51l-0.05,0.05l0,-9.24l-4.87,3.47l-0.15,17.76c-0.01,0.92 -0.76,1.67 -1.68,1.67l-4.7,0z" fill="white" id="svg_3"/>
  <path d="m74.42,35l-2.86,0l0,-7.18c0,-1.92 -0.94,-3.19 -2.83,-3.19c-1.8,0 -2.95,1.3 -2.95,3.24l0,7.13l-2.86,0l0,-19.54l2.86,0l0,8.36c0.98,-1.28 2.28,-1.9 3.84,-1.9c3.14,0 4.8,2.11 4.8,5.18l0,7.9z" fill="black" id="svg_4"/>
  <text fill="#000000" font-family="Sans-serif" font-size="24" font-weight="bold" id="svg_8" stroke-width="0" text-anchor="middle" x="101" xml:space="preserve" y="35.4">arsh</text>
 </g>

</svg>